<svg xmlns="http://www.w3.org/2000/svg" viewBox="0 -6 200 200"><path d="M62 112H138L158 150Q164 166 148 168H52Q36 166 42 150Z" fill="#1E8F6C"/><path d="M80 20H120V28H114V68L158 150Q164 166 148 168H52Q36 166 42 150L86 68V28H80Z" fill="none" stroke="#12352C" stroke-linejoin="round" stroke-width="9"/><path d="M81 136L70 145L81 154M95 156L105 134M119 136L130 145L119 154" fill="none" stroke="#F1E8D2" stroke-linecap="round" stroke-linejoin="round" stroke-width="6"/><circle cx="96" cy="94" r="7" fill="none" stroke="#12352C" stroke-width="4.5"/><circle cx="103" cy="76" r="4.5" fill="none" stroke="#12352C" stroke-width="4"/><circle cx="100" cy="49" r="4" fill="#C98A12"/></svg>